<svg width="33" height="31" viewBox="0 0 33 31" fill="none" xmlns="http://www.w3.org/2000/svg">
<path d="M4.125 7.75H6.875H28.875" stroke="#514F4F" stroke-linecap="round" stroke-linejoin="round"/>
<path d="M26.625 7.75C26.625 7.47386 26.4011 7.25 26.125 7.25C25.8489 7.25 25.625 7.47386 25.625 7.75H26.625ZM7.375 7.75C7.375 7.47386 7.15114 7.25 6.875 7.25C6.59886 7.25 6.375 7.47386 6.375 7.75H7.375ZM10.5 7.75C10.5 8.02614 10.7239 8.25 11 8.25C11.2761 8.25 11.5 8.02614 11.5 7.75H10.5ZM21.5 7.75C21.5 8.02614 21.7239 8.25 22 8.25C22.2761 8.25 22.5 8.02614 22.5 7.75H21.5ZM25.625 7.75V25.8333H26.625V7.75H25.625ZM25.625 25.8333C25.625 26.9549 24.6475 27.9167 23.375 27.9167V28.9167C25.14 28.9167 26.625 27.5652 26.625 25.8333H25.625ZM23.375 27.9167H9.625V28.9167H23.375V27.9167ZM9.625 27.9167C8.35245 27.9167 7.375 26.9549 7.375 25.8333H6.375C6.375 27.5652 7.85998 28.9167 9.625 28.9167V27.9167ZM7.375 25.8333V7.75H6.375V25.8333H7.375ZM11.5 7.75V5.16667H10.5V7.75H11.5ZM11.5 5.16667C11.5 4.04506 12.4775 3.08334 13.75 3.08334V2.08334C11.985 2.08334 10.5 3.4348 10.5 5.16667H11.5ZM13.75 3.08334H19.25V2.08334H13.75V3.08334ZM19.25 3.08334C20.5225 3.08334 21.5 4.04506 21.5 5.16667H22.5C22.5 3.4348 21.015 2.08334 19.25 2.08334V3.08334ZM21.5 5.16667V7.75H22.5V5.16667H21.5Z" fill="#514F4F"/>
<path d="M13.75 14.2083V21.9583" stroke="#514F4F" stroke-linecap="round" stroke-linejoin="round"/>
<path d="M19.25 14.2083V21.9583" stroke="#514F4F" stroke-linecap="round" stroke-linejoin="round"/>
</svg>
